<?xml version="1.0" encoding="UTF-8" standalone="no"?>
<!DOCTYPE svg PUBLIC "-//W3C//DTD SVG 1.1//EN" "http://www.w3.org/Graphics/SVG/1.1/DTD/svg11.dtd">
<svg width="100%" height="100%" viewBox="0 0 1000 1000" version="1.1" xmlns="http://www.w3.org/2000/svg" xmlns:xlink="http://www.w3.org/1999/xlink" xml:space="preserve" xmlns:serif="http://www.serif.com/" style="fill-rule:evenodd;clip-rule:evenodd;stroke-linecap:round;stroke-miterlimit:1.5;">
    <rect id="ipbuilding_Icon" x="0" y="0" width="1000" height="1000" style="fill:none;"/>
    <clipPath id="_clip1">
        <rect id="ipbuilding_Icon1" serif:id="ipbuilding_Icon" x="0" y="0" width="1000" height="1000"/>
    </clipPath>
    <g clip-path="url(#_clip1)">
        <g transform="matrix(15.222222,0,0,15.222222,-9.944444,248.833333)">
            <path d="M65,33L2,32.301L2,7L21,0L40,7L40,14L65,14L65,33Z" style="fill:none;stroke:rgb(72,170,67);stroke-width:2.19px;"/>
        </g>
        <g id="Gate">
            <g transform="matrix(0,-12.47619,-11.778758,-0,1284.330534,1214.095238)">
                <path d="M59,56.839L38,56.839L39.861,44L57.139,44L59,56.839Z" style="fill:rgb(72,170,67);"/>
            </g>
            <g transform="matrix(1.215509,0,0,1.028455,-126.64156,-10.51626)">
                <rect x="583" y="475" width="27.841" height="246" style="fill:rgb(72,170,67);"/>
            </g>
            <g transform="matrix(-0,12.47619,11.778758,0,294.575737,3.904762)">
                <path d="M59,56.839L38,56.839L39.861,44L57.139,44L59,56.839Z" style="fill:rgb(72,170,67);"/>
            </g>
        </g>
    </g>
</svg>
